<svg width="280" height="280" viewBox="0 0 280 280" fill="none" xmlns="http://www.w3.org/2000/svg">
<circle cx="141" cy="42.0346" r="24.9912" fill="#F1F1F1"/>
<circle cx="214.973" cy="177.987" r="24.9912" fill="#F1F1F1"/>
<circle cx="65.0265" cy="177.987" r="24.9912" fill="#F1F1F1"/>
<path d="M175.987 112.01C175.987 107.415 175.082 102.866 173.324 98.6208C171.566 94.3759 168.989 90.5189 165.74 87.27C162.491 84.0211 158.634 81.4439 154.389 79.6856C150.144 77.9273 145.594 77.0223 141 77.0223C136.405 77.0223 131.855 77.9273 127.61 79.6856C123.366 81.4439 119.509 84.0211 116.26 87.27C113.011 90.5189 110.434 94.3759 108.675 98.6208C106.917 102.866 106.012 107.415 106.012 112.01L141 112.01H175.987Z" fill="#F1F1F1"/>
<path d="M249.961 247.962C249.961 243.367 249.056 238.818 247.298 234.573C245.54 230.328 242.962 226.471 239.713 223.222C236.465 219.973 232.608 217.396 228.363 215.638C224.118 213.879 219.568 212.974 214.973 212.974C210.379 212.974 205.829 213.879 201.584 215.638C197.339 217.396 193.482 219.973 190.233 223.222C186.985 226.471 184.407 230.328 182.649 234.573C180.891 238.818 179.986 243.367 179.986 247.962L214.973 247.962H249.961Z" fill="#F1F1F1"/>
<path d="M100.014 247.962C100.014 243.367 99.1091 238.818 97.3508 234.573C95.5925 230.328 93.0154 226.471 89.7665 223.222C86.5176 219.973 82.6606 217.396 78.4157 215.638C74.1708 213.879 69.6211 212.974 65.0265 212.974C60.4318 212.974 55.8822 213.879 51.6373 215.638C47.3924 217.396 43.5354 219.973 40.2865 223.222C37.0376 226.471 34.4604 230.328 32.7021 234.573C30.9438 238.818 30.0388 243.367 30.0388 247.962L65.0265 247.962H100.014Z" fill="#F1F1F1"/>
<path d="M140 129.004V165.047" stroke="#F1F1F1" stroke-width="5.99788" stroke-linecap="round"/>
<path d="M140.47 164.123L171.684 182.145" stroke="#F1F1F1" stroke-width="5.99788" stroke-linecap="round"/>
<path d="M139.405 164.991L108.011 182.697" stroke="#F1F1F1" stroke-width="5.99788" stroke-linecap="round"/>
</svg>
